ffmpeg version 7.0.2 Copyright (c) 2000-2024 the FFmpeg developers
  built with Apple clang version 16.0.0 (clang-1600.0.26.3)
  configuration: --prefix=/opt/homebrew/Cellar/ffmpeg/7.0.2_1 --enable-shared --enable-pthreads --enable-version3 --cc=clang --host-cflags= --host-ldflags='-Wl,-ld_classic' --enable-ffplay --enable-gnutls --enable-gpl --enable-libaom --enable-libaribb24 --enable-libbluray --enable-libdav1d --enable-libharfbuzz --enable-libjxl --enable-libmp3lame --enable-libopus --enable-librav1e --enable-librist --enable-librubberband --enable-libsnappy --enable-libsrt --enable-libssh --enable-libsvtav1 --enable-libtesseract --enable-libtheora --enable-libvidstab --enable-libvmaf --enable-libvorbis --enable-libvpx --enable-libwebp --enable-libx264 --enable-libx265 --enable-libxml2 --enable-libxvid --enable-lzma --enable-libfontconfig --enable-libfreetype --enable-frei0r --enable-libass --enable-libopencore-amrnb --enable-libopencore-amrwb --enable-libopenjpeg --enable-libspeex --enable-libsoxr --enable-libzmq --enable-libzimg --disable-libjack --disable-indev=jack --enable-videotoolbox --enable-audiotoolbox --enable-neon
  libavutil      59.  8.100 / 59.  8.100
  libavcodec     61.  3.100 / 61.  3.100
  libavformat    61.  1.100 / 61.  1.100
  libavdevice    61.  1.100 / 61.  1.100
  libavfilter    10.  1.100 / 10.  1.100
  libswscale      8.  1.100 /  8.  1.100
  libswresample   5.  1.100 /  5.  1.100
  libpostproc    58.  1.100 / 58.  1.100
2024-10-08 00:26:51.673 ffmpeg[36307:20019763] WARNING: Add NSCameraUseContinuityCameraDeviceType to your Info.plist to use AVCaptureDeviceTypeContinuityCamera.
Input #0, avfoundation, from ':BlackHole 2ch':
  Duration: N/A, start: 538591.052625, bitrate: 1024 kb/s
  Stream #0:0: Audio: pcm_f32le, 16000 Hz, stereo, flt, 1024 kb/s
Stream mapping:
  Stream #0:0 -> #0:0 (pcm_f32le (native) -> pcm_s16le (native))
Press [q] to stop, [?] for help
Output #0, s16le, to 'pipe:':
  Metadata:
    encoder         : Lavf61.1.100
  Stream #0:0: Audio: pcm_s16le, 16000 Hz, mono, s16, 256 kb/s
      Metadata:
        encoder         : Lavc61.3.100 pcm_s16le
size=       6KiB time=00:00:00.40 bitrate= 128.0kbits/s speed=0.397x    size=      19KiB time=00:00:00.80 bitrate= 192.0kbits/s speed=0.53x    size=      38KiB time=00:00:01.40 bitrate= 219.4kbits/s speed=0.696x    size=      50KiB time=00:00:01.80 bitrate= 227.6kbits/s speed=0.716x    size=      69KiB time=00:00:02.40 bitrate= 234.7kbits/s speed=0.796x    size=      81KiB time=00:00:02.80 bitrate= 237.7kbits/s speed=0.796x    size=     100KiB time=00:00:03.40 bitrate= 240.9kbits/s speed=0.845x    size=     112KiB time=00:00:03.80 bitrate= 242.5kbits/s speed=0.839x    size=     131KiB time=00:00:04.40 bitrate= 244.4kbits/s speed=0.874x    size=     144KiB time=00:00:04.80 bitrate= 245.3kbits/s speed=0.867x    size=     162KiB time=00:00:05.40 bitrate= 246.5kbits/s speed=0.893x    size=     175KiB time=00:00:05.80 bitrate= 247.2kbits/s speed=0.886x    size=     194KiB time=00:00:06.40 bitrate= 248.0kbits/s speed=0.908x    size=     206KiB time=00:00:06.80 bitrate= 248.5kbits/s speed= 0.9x    size=     225KiB time=00:00:07.40 bitrate= 249.1kbits/s speed=0.918x    size=     238KiB time=00:00:07.80 bitrate= 249.4kbits/s speed=0.911x    size=     256KiB time=00:00:08.40 bitrate= 249.9kbits/s speed=0.926x    size=     275KiB time=00:00:09.00 bitrate= 250.3kbits/s speed=0.941x    size=     288KiB time=00:00:09.40 bitrate= 250.6kbits/s speed=0.933x    size=     300KiB time=00:00:09.80 bitrate= 250.8kbits/s speed=0.926x    size=     319KiB time=00:00:10.40 bitrate= 251.1kbits/s speed=0.938x    size=     331KiB time=00:00:10.80 bitrate= 251.3kbits/s speed=0.932x    size=     350KiB time=00:00:11.40 bitrate= 251.5kbits/s speed=0.943x    size=     369KiB time=00:00:12.00 bitrate= 251.7kbits/s speed=0.953x    size=     381KiB time=00:00:12.40 bitrate= 251.9kbits/s speed=0.946x    size=     400KiB time=00:00:13.00 bitrate= 252.1kbits/s speed=0.956x    size=     412KiB time=00:00:13.40 bitrate= 252.2kbits/s speed=0.95x    size=     431KiB time=00:00:14.00 bitrate= 252.3kbits/s speed=0.958x    size=     444KiB time=00:00:14.40 bitrate= 252.4kbits/s speed=0.952x    size=     462KiB time=00:00:15.00 bitrate= 252.6kbits/s speed=0.96x    size=     475KiB time=00:00:15.40 bitrate= 252.7kbits/s speed=0.955x    size=     494KiB time=00:00:16.00 bitrate= 252.8kbits/s speed=0.962x    size=     506KiB time=00:00:16.40 bitrate= 252.9kbits/s speed=0.957x    size=     525KiB time=00:00:17.00 bitrate= 253.0kbits/s speed=0.964x    size=     538KiB time=00:00:17.40 bitrate= 253.1kbits/s speed=0.959x    size=     556KiB time=00:00:18.00 bitrate= 253.2kbits/s speed=0.966x    size=     569KiB time=00:00:18.40 bitrate= 253.2kbits/s speed=0.961x    size=     588KiB time=00:00:19.00 bitrate= 253.3kbits/s speed=0.967x    size=     600KiB time=00:00:19.40 bitrate= 253.4kbits/s speed=0.963x    size=     619KiB time=00:00:20.00 bitrate= 253.4kbits/s speed=0.968x    size=     631KiB time=00:00:20.40 bitrate= 253.5kbits/s speed=0.964x    size=     650KiB time=00:00:21.00 bitrate= 253.6kbits/s speed=0.969x    size=     662KiB time=00:00:21.40 bitrate= 253.6kbits/s speed=0.965x    size=     681KiB time=00:00:22.00 bitrate= 253.7kbits/s speed=0.97x    size=     700KiB time=00:00:22.60 bitrate= 253.7kbits/s speed=0.975x    size=     712KiB time=00:00:23.00 bitrate= 253.8kbits/s speed=0.971x    size=     725KiB time=00:00:23.40 bitrate= 253.8kbits/s speed=0.967x    size=     744KiB time=00:00:24.00 bitrate= 253.9kbits/s speed=0.972x    